<mxfile host="app.diagrams.net" modified="2023-09-25T03:08:43.517Z" agent="Mozilla/5.0 (Macintosh; Intel Mac OS X 10_15_7) AppleWebKit/537.36 (KHTML, like Gecko) Chrome/117.0.0.0 Safari/537.36" version="21.8.2" etag="N7O-CcaIlSpw4PnvPV8V" type="github">
  <diagram name="Page-1" id="SERtzEscXxNsJhAu1b_l">
    <mxGraphModel>
      <root>
        <mxCell id="0" />
        <mxCell id="1" parent="0" />
      </root>
    </mxGraphModel>
  </diagram>
</mxfile>
